<?xml version="1.0" encoding="UTF-8" standalone="no"?>
<!-- Created with Inkscape (http://www.inkscape.org/) -->

<svg
   xmlns:dc="http://purl.org/dc/elements/1.1/"
   xmlns:cc="http://creativecommons.org/ns#"
   xmlns:rdf="http://www.w3.org/1999/02/22-rdf-syntax-ns#"
   xmlns:svg="http://www.w3.org/2000/svg"
   xmlns="http://www.w3.org/2000/svg"
   version="1.1"
   width="892.91339"
   height="267.16534"
   id="svg3228">
  <defs
     id="defs3230" />
  <metadata
     id="metadata3233">
    <rdf:RDF>
      <cc:Work
         rdf:about="">
        <dc:format>image/svg+xml</dc:format>
        <dc:type
           rdf:resource="http://purl.org/dc/dcmitype/StillImage" />
        <dc:title></dc:title>
      </cc:Work>
    </rdf:RDF>
  </metadata>
  <g
     transform="translate(55.840584,-410.30655)"
     id="layer1">
    <g
       transform="matrix(5.8400545,0,0,5.8400545,-1878.6622,-2298.161)"
       id="g3339">
      <g
         transform="matrix(1.25,0,0,-1.25,320.60455,490.56165)"
         id="g3001">
        <path
           d="m 0,0 0.037,0 2.971,9.157 2.933,0 L 8.724,0 l 0.037,0 2.67,9.157 3.836,0 -4.531,-14.177 -3.762,0 -2.48,8.217 -0.039,0 -2.782,-8.217 -3.742,0 -4.23,14.177 3.835,0 L 0,0"
           id="path3003"
           style="fill:#6d7479;fill-opacity:1;fill-rule:nonzero;stroke:none" />
      </g>
      <g
         transform="matrix(1.25,0,0,-1.25,345.42705,483.0179)"
         id="g3005">
        <path
           d="m 0,0 0,-2.369 4.155,0 0,-3.12 -4.155,0 0,-2.444 4.381,0 0,-3.122 -8.066,0 0,14.177 8.066,0 L 4.381,0 0,0"
           id="path3007"
           style="fill:#6d7479;fill-opacity:1;fill-rule:nonzero;stroke:none" />
      </g>
      <path
         d="m 353.6133,496.83665 4.605,0 0,-17.72125 -4.605,0 0,17.72125 z"
         id="path3009"
         style="fill:#6d7479;fill-opacity:1;fill-rule:nonzero;stroke:none" />
      <g
         transform="matrix(1.25,0,0,-1.25,361.37955,479.1154)"
         id="g3011">
        <path
           d="m 0,0 3.686,0 6.75,-8.668 0.037,0 0,8.668 3.686,0 0,-14.177 -3.686,0 -6.75,8.686 -0.037,0 0,-8.686 -3.686,0 L 0,0"
           id="path3013"
           style="fill:#6d7479;fill-opacity:1;fill-rule:nonzero;stroke:none" />
      </g>
      <g
         transform="matrix(1.25,0,0,-1.25,425.59205,479.1154)"
         id="g3015">
        <path
           d="m 0,0 3.684,0 6.751,-8.668 0.037,0 0,8.668 3.686,0 0,-14.177 -3.686,0 -6.75,8.686 -0.038,0 0,-8.686 -3.684,0 L 0,0"
           id="path3017"
           style="fill:#6d7479;fill-opacity:1;fill-rule:nonzero;stroke:none" />
      </g>
      <g
         transform="matrix(1.25,0,0,-1.25,446.4608,479.1154)"
         id="g3019">
        <path
           d="m 0,0 3.685,0 6.749,-8.668 0.037,0 0,8.668 3.686,0 0,-14.177 -3.686,0 -6.75,8.686 -0.036,0 0,-8.686 -3.685,0 L 0,0"
           id="path3021"
           style="fill:#6d7479;fill-opacity:1;fill-rule:nonzero;stroke:none" />
      </g>
      <g
         transform="matrix(1.25,0,0,-1.25,400.6108,479.1154)"
         id="g3023">
        <path
           d="M 0,0 -3.667,0 -6.713,-7.578 -9.589,0 l -3.63,0 -2.405,-14.177 3.666,0 1.185,8.16 0.037,0 3.252,-8.16 1.467,0 3.403,8.16 0.038,0 0.813,-6.414 L 0.84,-5.562 0,0"
           id="path3025"
           style="fill:#6d7479;fill-opacity:1;fill-rule:nonzero;stroke:none" />
      </g>
      <g
         transform="matrix(1.25,0,0,-1.25,352.24205,503.73915)"
         id="g3027">
        <path
           d="m 0,0 0.012,0 c 0.16,0.249 0.446,0.445 0.756,0.445 0.373,0 0.641,-0.189 0.824,-0.508 0.176,0.305 0.518,0.508 0.878,0.508 0.75,0 0.945,-0.586 0.945,-1.232 l 0,-1.707 -0.549,0 0,1.616 c 0,0.365 -0.049,0.834 -0.53,0.834 -0.586,0 -0.628,-0.609 -0.628,-1.049 l 0,-1.401 -0.55,0 0,1.512 c 0,0.372 -0.017,0.938 -0.523,0.938 C 0.049,-0.044 0,-0.647 0,-1.093 l 0,-1.401 -0.549,0 0,2.853 L 0,0.359 0,0"
           id="path3029"
           style="fill:#6d7479;fill-opacity:1;fill-rule:nonzero;stroke:none" />
      </g>
      <g
         transform="matrix(1.25,0,0,-1.25,360.5433,505.1879)"
         id="g3031">
        <path
           d="m 0,0 c 0.005,-0.488 0.335,-0.946 0.859,-0.946 0.422,0 0.647,0.213 0.854,0.555 L 2.176,-0.652 C 1.909,-1.146 1.409,-1.433 0.853,-1.433 c -0.871,0 -1.402,0.658 -1.402,1.499 0,0.878 0.469,1.538 1.39,1.538 0.909,0 1.335,-0.672 1.335,-1.519 L 2.176,0 0,0 M 1.628,0.415 C 1.561,0.841 1.281,1.129 0.841,1.129 0.415,1.129 0.097,0.824 0.031,0.415 l 1.597,0"
           id="path3033"
           style="fill:#6d7479;fill-opacity:1;fill-rule:nonzero;stroke:none" />
      </g>
      <g
         transform="matrix(1.25,0,0,-1.25,369.21705,506.3004)"
         id="g3035">
        <path
           d="m 0,0 -0.012,0 c -0.219,-0.323 -0.566,-0.543 -0.969,-0.543 -0.878,0 -1.367,0.726 -1.367,1.543 0,0.78 0.52,1.494 1.342,1.494 0.428,0 0.769,-0.22 0.994,-0.561 l 0.012,0 0,2.915 0.549,0 0,-5.293 L 0,-0.445 0,0 m 0.031,0.981 c 0,0.555 -0.336,1.024 -0.927,1.024 -0.567,0 -0.903,-0.494 -0.903,-1.024 0,-0.537 0.323,-1.037 0.903,-1.037 0.597,0 0.927,0.477 0.927,1.037"
           id="path3037"
           style="fill:#6d7479;fill-opacity:1;fill-rule:nonzero;stroke:none" />
      </g>
      <g
         transform="matrix(1.25,0,0,-1.25,374.46955,501.6579)"
         id="g3039">
        <path
           d="m 0,0 c 0,-0.208 -0.171,-0.372 -0.379,-0.372 -0.208,0 -0.378,0.164 -0.378,0.372 0,0.212 0.17,0.383 0.378,0.383 C -0.171,0.383 0,0.212 0,0 m -0.104,-4.159 -0.549,0 0,2.853 0.549,0 0,-2.853"
           id="path3041"
           style="fill:#6d7479;fill-opacity:1;fill-rule:nonzero;stroke:none" />
      </g>
      <g
         transform="matrix(1.25,0,0,-1.25,380.76455,504.30415)"
         id="g3043">
        <path
           d="m 0,0 c -0.219,0.251 -0.487,0.384 -0.816,0.384 -0.537,0 -0.952,-0.475 -0.952,-1 0,-0.585 0.409,-1.013 0.988,-1.013 0.316,0 0.573,0.147 0.78,0.379 l 0,-0.702 c -0.25,-0.134 -0.5,-0.188 -0.786,-0.188 -0.842,0 -1.53,0.647 -1.53,1.499 0,0.885 0.682,1.538 1.56,1.538 C -0.5,0.897 -0.219,0.835 0,0.708 L 0,0"
           id="path3045"
           style="fill:#6d7479;fill-opacity:1;fill-rule:nonzero;stroke:none" />
      </g>
      <g
         transform="matrix(1.25,0,0,-1.25,387.55705,506.85665)"
         id="g3047">
        <path
           d="m 0,0 -0.549,0 0,0.445 -0.013,0 c -0.219,-0.323 -0.56,-0.543 -0.969,-0.543 -0.871,0 -1.366,0.726 -1.366,1.543 0,0.78 0.518,1.494 1.348,1.494 0.42,0 0.762,-0.22 0.987,-0.561 l 0.013,0 0,0.475 L 0,2.853 0,0 m -0.52,1.426 c 0,0.555 -0.334,1.024 -0.926,1.024 -0.567,0 -0.902,-0.494 -0.902,-1.024 0,-0.537 0.322,-1.037 0.902,-1.037 0.598,0 0.926,0.477 0.926,1.037"
           id="path3049"
           style="fill:#6d7479;fill-opacity:1;fill-rule:nonzero;stroke:none" />
      </g>
      <path
         d="m 391.18455,506.85665 0.68623,0 0,-6.61625 -0.68623,0 0,6.61625 z"
         id="path3051"
         style="fill:#6d7479;fill-opacity:1;fill-rule:nonzero;stroke:none" />
      <g
         transform="matrix(1.25,0,0,-1.25,407.5133,506.85665)"
         id="g3053">
        <path
           d="m 0,0 -0.549,0 0,2.342 -0.299,0 0,0.511 0.299,0 0,1.091 0.549,0 0,-1.091 0.537,0 0,-0.511 L 0,2.342 0,0"
           id="path3055"
           style="fill:#6d7479;fill-opacity:1;fill-rule:nonzero;stroke:none" />
      </g>
      <g
         transform="matrix(1.25,0,0,-1.25,411.5608,505.1879)"
         id="g3057">
        <path
           d="m 0,0 c 0.006,-0.488 0.336,-0.946 0.859,-0.946 0.421,0 0.647,0.213 0.854,0.555 L 2.176,-0.652 C 1.908,-1.146 1.408,-1.433 0.854,-1.433 c -0.873,0 -1.403,0.658 -1.403,1.499 0,0.878 0.469,1.538 1.391,1.538 0.908,0 1.334,-0.672 1.334,-1.519 L 2.176,0 0,0 M 1.628,0.415 C 1.561,0.841 1.28,1.129 0.842,1.129 0.414,1.129 0.097,0.824 0.029,0.415 l 1.599,0"
           id="path3059"
           style="fill:#6d7479;fill-opacity:1;fill-rule:nonzero;stroke:none" />
      </g>
      <g
         transform="matrix(1.25,0,0,-1.25,420.0808,504.30415)"
         id="g3061">
        <path
           d="m 0,0 c -0.218,0.251 -0.486,0.384 -0.816,0.384 -0.537,0 -0.951,-0.475 -0.951,-1 0,-0.585 0.408,-1.013 0.987,-1.013 0.318,0 0.573,0.147 0.78,0.379 l 0,-0.702 c -0.249,-0.134 -0.5,-0.188 -0.786,-0.188 -0.841,0 -1.53,0.647 -1.53,1.499 0,0.885 0.684,1.538 1.561,1.538 C -0.5,0.897 -0.218,0.835 0,0.708 L 0,0"
           id="path3063"
           style="fill:#6d7479;fill-opacity:1;fill-rule:nonzero;stroke:none" />
      </g>
      <g
         transform="matrix(1.25,0,0,-1.25,424.09705,500.2404)"
         id="g3065">
        <path
           d="m 0,0 0,-2.825 0.014,0 c 0.171,0.305 0.512,0.471 0.859,0.471 0.805,0 1.012,-0.545 1.012,-1.238 l 0,-1.701 -0.549,0 0,1.634 c 0,0.488 -0.066,0.816 -0.628,0.816 C 0,-2.843 0,-3.464 0,-3.984 l 0,-1.309 -0.549,0 0,5.293 L 0,0"
           id="path3067"
           style="fill:#6d7479;fill-opacity:1;fill-rule:nonzero;stroke:none" />
      </g>
      <g
         transform="matrix(1.25,0,0,-1.25,430.67705,503.77165)"
         id="g3069">
        <path
           d="m 0,0 0.012,0 c 0.172,0.305 0.511,0.471 0.859,0.471 0.805,0 1.013,-0.545 1.013,-1.238 l 0,-1.701 -0.548,0 0,1.634 c 0,0.488 -0.067,0.816 -0.629,0.816 C 0,-0.018 0,-0.639 0,-1.159 l 0,-1.309 -0.549,0 0,2.853 L 0,0.385 0,0"
           id="path3071"
           style="fill:#6d7479;fill-opacity:1;fill-rule:nonzero;stroke:none" />
      </g>
      <g
         transform="matrix(1.25,0,0,-1.25,440.05955,505.08165)"
         id="g3073">
        <path
           d="m 0,0 c 0,-0.86 -0.671,-1.518 -1.524,-1.518 -0.853,0 -1.525,0.658 -1.525,1.518 0,0.859 0.672,1.519 1.525,1.519 C -0.671,1.519 0,0.859 0,0 m -2.5,0 c 0,-0.536 0.433,-0.994 0.976,-0.994 0.542,0 0.975,0.458 0.975,0.994 0,0.543 -0.433,0.993 -0.975,0.993 C -2.067,0.993 -2.5,0.543 -2.5,0"
           id="path3075"
           style="fill:#6d7479;fill-opacity:1;fill-rule:nonzero;stroke:none" />
      </g>
      <path
         d="m 443.3058,506.85665 0.68626,0 0,-6.61625 -0.68626,0 0,6.61625 z"
         id="path3077"
         style="fill:#6d7479;fill-opacity:1;fill-rule:nonzero;stroke:none" />
      <g
         transform="matrix(1.25,0,0,-1.25,451.0508,505.08165)"
         id="g3079">
        <path
           d="m 0,0 c 0,-0.86 -0.671,-1.518 -1.525,-1.518 -0.853,0 -1.524,0.658 -1.524,1.518 0,0.859 0.671,1.519 1.524,1.519 C -0.671,1.519 0,0.859 0,0 m -2.5,0 c 0,-0.536 0.433,-0.994 0.975,-0.994 0.543,0 0.976,0.458 0.976,0.994 0,0.543 -0.433,0.993 -0.976,0.993 C -2.067,0.993 -2.5,0.543 -2.5,0"
           id="path3081"
           style="fill:#6d7479;fill-opacity:1;fill-rule:nonzero;stroke:none" />
      </g>
      <g
         transform="matrix(1.25,0,0,-1.25,457.6058,506.78915)"
         id="g3083">
        <path
           d="m 0,0 c 0,-0.982 -0.28,-1.689 -1.391,-1.689 -0.793,0 -1.365,0.487 -1.378,1.293 l 0.55,0 c 0,-0.513 0.354,-0.806 0.854,-0.806 0.675,0 0.816,0.464 0.816,1.05 l 0,0.543 -0.012,0 c -0.219,-0.323 -0.566,-0.543 -0.97,-0.543 -0.877,0 -1.366,0.726 -1.366,1.543 0,0.78 0.52,1.494 1.342,1.494 0.428,0 0.769,-0.22 0.994,-0.574 l 0.012,0 0,0.488 L 0,2.799 0,0 m -0.519,1.372 c 0,0.555 -0.335,1.024 -0.926,1.024 -0.567,0 -0.903,-0.494 -0.903,-1.024 0,-0.537 0.324,-1.037 0.903,-1.037 0.597,0 0.926,0.477 0.926,1.037"
           id="path3085"
           style="fill:#6d7479;fill-opacity:1;fill-rule:nonzero;stroke:none" />
      </g>
      <g
         transform="matrix(1.25,0,0,-1.25,460.5158,503.2904)"
         id="g3087">
        <path
           d="M 0,0 0.643,0 1.606,-1.811 2.502,0 l 0.615,0 -2.31,-4.488 -0.622,0 1.122,2.122 L 0,0"
           id="path3089"
           style="fill:#6d7479;fill-opacity:1;fill-rule:nonzero;stroke:none" />
      </g>
      <g
         transform="matrix(1.25,0,0,-1.25,409.8058,470.36665)"
         id="g3091">
        <path
           d="m 0,0 -11.11,-29.189 3.637,0.004 L 1.834,-4.807 0,0"
           id="path3093"
           style="fill:#6d7479;fill-opacity:1;fill-rule:evenodd;stroke:none" />
      </g>
      <g
         transform="matrix(1.25,0,0,-1.25,417.7558,479.1329)"
         id="g3095">
        <path
           d="m 0,0 2.703,7.092 -1.851,4.698 -9.89,-25.957 3.635,0.004 0.944,2.467 5.219,-0.003 0.921,-2.464 3.649,0 L 0,0 m -3.384,-8.877 1.528,4.013 1.561,-4.014 -3.089,10e-4"
           id="path3097"
           style="fill:#6d7479;fill-opacity:1;fill-rule:evenodd;stroke:none" />
      </g>
    </g>
  </g>
</svg>
